<?xml version="1.0" standalone="no"?>
<!DOCTYPE svg PUBLIC "-//W3C//DTD SVG 20010904//EN"
 "http://www.w3.org/TR/2001/REC-SVG-20010904/DTD/svg10.dtd">
<svg version="1.0" xmlns="http://www.w3.org/2000/svg"
 width="479.000000pt" height="479.000000pt" viewBox="0 0 479.000000 479.000000"
 preserveAspectRatio="xMidYMid meet">
<metadata>
Created by potrace 1.11, written by Peter Selinger 2001-2013
</metadata>
<g transform="translate(0.000000,479.000000) scale(0.100000,-0.100000)"
fill="#000000" stroke="none">
<path d="M2327 4754 c-1 -1 -49 -5 -107 -8 -437 -28 -880 -193 -1240 -464
-105 -79 -130 -101 -260 -231 -295 -296 -496 -649 -603 -1061 -20 -74 -38
-156 -42 -181 -3 -25 -8 -57 -10 -71 -16 -89 -23 -209 -20 -383 5 -284 47
-516 137 -760 47 -127 116 -274 168 -360 17 -27 34 -57 37 -65 4 -8 11 -19 15
-25 5 -5 23 -32 40 -60 79 -124 284 -355 418 -470 83 -72 261 -197 365 -257
101 -59 292 -144 421 -187 128 -42 192 -59 334 -86 40 -8 170 -25 230 -31 55
-5 310 -5 365 1 124 12 278 36 323 49 9 3 31 8 48 11 42 7 150 39 254 77 565
203 1053 645 1313 1191 207 433 276 907 203 1392 -4 28 -12 66 -16 85 -5 19
-11 46 -13 60 -24 136 -98 342 -189 528 -177 362 -463 686 -810 915 -119 79
-289 171 -373 202 -27 10 -54 22 -60 26 -18 13 -264 88 -342 104 -42 9 -79 17
-82 19 -3 2 -35 7 -71 11 -36 4 -68 9 -71 10 -11 7 -355 25 -362 19z"/>
</g>
</svg>
